<svg t="1647930272504" class="icon" viewBox="0 0 1024 1024" version="1.1" xmlns="http://www.w3.org/2000/svg" p-id="2630" width="200" height="200"><path d="M912.416 480H816v-159.872A64.192 64.192 0 0 0 751.84 256H672V64.128A64.192 64.192 0 0 0 607.84 0h-191.712A64.192 64.192 0 0 0 352 64.128V256H272.128A64.192 64.192 0 0 0 208 320.128V480H111.584A111.68 111.68 0 0 0 0 591.584v160.8c0 56.192 41.888 102.336 96 110.016v113.6A48 48 0 0 0 144 1024h224a48 48 0 0 0 48-48V864h192v112a48 48 0 0 0 48 48h224a48 48 0 0 0 48-48v-113.568c54.112-7.68 96-53.824 96-110.016v-160.8A111.68 111.68 0 0 0 912.416 480zM448 96h128v160h-128V96z m-144 256h416v128h-416v-128z m16 576H192v-64h128v64z m512 0h-128v-64h128v64z m96-175.584a15.616 15.616 0 0 1-15.584 15.584H111.584A15.616 15.616 0 0 1 96 752.416v-160.8c0-8.608 7.008-15.616 15.584-15.616h800.8c8.608 0 15.616 7.008 15.616 15.584v160.832z" p-id="2631"></path></svg>
