<svg t="1645167006152" class="icon" viewBox="0 0 1024 1024" version="1.1" xmlns="http://www.w3.org/2000/svg" p-id="2225" width="200" height="200"><path d="M966.136837 260.049194l-52.19233 52.37482A142.890189 142.890189 0 0 1 711.927344 109.494398l52.192329-52.19233c28.833525-28.833525 9.672005-62.776788-42.337833-54.747199a261.509119 261.509119 0 0 0-215.521473 313.336468l-437.97759 437.97759A142.707698 142.707698 0 0 0 269.934959 956.251072l437.97759-437.97759A261.144138 261.144138 0 0 0 1020.336563 302.9345c8.759552-52.37482-25.366202-71.71883-54.199726-42.885306zM202.595905 888.912017a47.630063 47.630063 0 1 1 0-67.339054 47.630063 47.630063 0 0 1 0 67.339054z m-47.447573-620.468252l164.241597 165.154049 67.339054-67.521545-164.241596-164.241596-36.498133-70.623887-118.43644-84.675667L0.21376 113.874173l84.128195 117.888968z m552.216745 350.564562a23.723786 23.723786 0 0 0-33.578282 0l-101.099827 101.099827a23.723786 23.723786 0 0 0 0 33.578282l238.332805 238.332805A95.260126 95.260126 0 1 0 945.697882 857.706114z" p-id="2226"></path></svg>
