<svg t="1645761173556" class="icon" viewBox="0 0 1024 1024" version="1.1" xmlns="http://www.w3.org/2000/svg" p-id="1703" width="200" height="200"><path d="M807.936 75.776H768c0 3.072 1.024 6.144 1.024 10.24 0 50.176-40.96 91.136-91.136 91.136H347.136c-50.176 0-91.136-40.96-91.136-91.136 0-3.072 0-6.144 1.024-10.24h-45.056c-86.016 0-154.624 69.632-154.624 154.624v625.664c0 86.016 69.632 154.624 154.624 154.624h595.968c84.992 1.024 154.624-68.608 154.624-153.6V230.4c0-84.992-69.632-154.624-154.624-154.624zM446.464 732.16H264.192c-27.648 0-50.176-22.528-50.176-50.176s22.528-50.176 50.176-50.176h183.296c27.648 0 50.176 22.528 50.176 50.176 0 26.624-22.528 50.176-51.2 50.176z m308.224-227.328h-491.52c-27.648 0-50.176-22.528-50.176-50.176s22.528-50.176 50.176-50.176h491.52c27.648 0 50.176 22.528 50.176 50.176s-21.504 50.176-50.176 50.176z" p-id="1704"></path><path d="M667.648 140.288H357.376c-35.84 0-65.536-28.672-65.536-65.536 0-35.84 28.672-65.536 65.536-65.536h311.296c35.84 0 65.536 28.672 65.536 65.536-1.024 36.864-30.72 65.536-66.56 65.536z" p-id="1705"></path></svg>
