<svg t="1647583897376" class="icon" viewBox="0 0 1024 1024" version="1.1" xmlns="http://www.w3.org/2000/svg" p-id="9374" width="200" height="200"><path d="M963.2 272c0-12.8-6.4-22.4-16-28.8L531.2 3.2c-9.6-6.4-22.4-6.4-35.2 0L83.2 243.2c-9.6 6.4-16 19.2-16 28.8h-6.4v476.8c0 12.8 6.4 22.4 19.2 28.8l412.8 240h3.2c6.4 3.2 12.8 3.2 16 3.2 6.4 0 12.8 0 16-3.2l412.8-240c9.6-6.4 16-16 16-28.8l6.4-476.8zM480 931.2L131.2 729.6V332.8L480 531.2v400z m35.2-460.8L169.6 272l345.6-198.4 345.6 198.4-345.6 198.4z" fill="#505050" p-id="9375"></path><path d="M297.6 784v-83.2l12.8 9.6c16 9.6 28.8 12.8 41.6 16 12.8 0 22.4-3.2 28.8-6.4 12.8-9.6 19.2-32 19.2-54.4 0-32-12.8-64-28.8-89.6-16-22.4-35.2-38.4-60.8-54.4l-92.8-51.2v275.2l80 38.4z m6.4-204.8c0 3.2 0 3.2 0 0l3.2 3.2c3.2 0 6.4 3.2 9.6 9.6 3.2 3.2 6.4 12.8 6.4 22.4v16c0 3.2-3.2 6.4-3.2 6.4-3.2 3.2-6.4 3.2-9.6 0-3.2 0-6.4-3.2-12.8-6.4V576l6.4 3.2z" fill="#18659E" p-id="9376"></path></svg>
