<svg t="1647923773616" class="icon" viewBox="0 0 1024 1024" version="1.1" xmlns="http://www.w3.org/2000/svg" p-id="2252" width="200" height="200"><path d="M206.506667 160.085333a38.4 38.4 0 0 1 5.688889 76.344889l-5.688889 0.455111H111.729778c-1.024 0-1.706667 0.341333-2.048 0.682667l-0.284445 0.568889v632.035555c0 0.341333 0.341333 0.796444 1.024 1.080889l1.308445 0.227556h800.540444c1.024 0 1.706667-0.398222 2.048-0.739556l0.284445-0.568889V238.193778c0-0.341333-0.341333-0.796444-1.024-1.080889l-1.308445-0.170667H817.493333a38.4 38.4 0 0 1-5.688889-76.401778l5.688889-0.398222h94.776889c40.96 0 74.922667 30.72 78.791111 70.428445l0.341334 7.566222v632.149333c0 40.789333-31.573333 73.955556-71.509334 77.653334l-7.623111 0.398222H111.729778c-40.96 0-74.922667-30.72-78.791111-70.542222l-0.341334-7.509334V238.08c0-40.789333 31.573333-73.955556 71.509334-77.653333l7.623111-0.341334H206.506667z m507.392 271.132445l4.266666 3.697778c13.653333 13.653333 14.904889 34.986667 3.754667 50.005333l-3.754667 4.323555-236.771555 236.771556a38.4 38.4 0 0 1-50.062222 3.754667l-4.266667-3.754667-121.230222-121.230222a38.4 38.4 0 0 1 50.005333-58.026667l4.266667 3.697778 94.037333 94.094222 209.749333-209.635555a38.4 38.4 0 0 1 50.005334-3.697778zM315.050667 83.854222c21.219556 0 38.4 17.180444 38.4 38.4v153.201778a38.4 38.4 0 1 1-76.8 0V122.311111c0-21.219556 17.180444-38.4 38.4-38.4z m395.264 0c21.162667 0 38.4 17.180444 38.4 38.4v153.201778a38.4 38.4 0 0 1-76.8 0V122.311111c0-21.219556 17.180444-38.4 38.4-38.4z m-109.909334 76.231111a38.4 38.4 0 0 1 5.688889 76.344889l-5.688889 0.455111H423.594667a38.4 38.4 0 0 1-5.688889-76.401777l5.688889-0.398223h176.810666z" p-id="2253"></path></svg>
