<svg t="1647583660697" class="icon" viewBox="0 0 1034 1024" version="1.1" xmlns="http://www.w3.org/2000/svg" p-id="5849" width="200" height="200"><path d="M965.328213 629.845333v149.312a129.365333 129.365333 0 0 1-129.365333 129.365334H209.360213a129.365333 129.365333 0 1 1-79.978666-231.061334l180.714666-142.122666a129.386667 129.386667 0 0 1 141.312-12.224l184.128 99.114666c13.013333 7.04 29.013333 4.266667 39.04-6.613333l65.344-72.426667c79.338667-87.978667 225.408-31.829333 225.408 86.656z" fill="#02C9ED" p-id="5850"></path><path d="M142.245547 1024a21.333333 21.333333 0 0 1-21.333334-21.333333V649.834667a21.333333 21.333333 0 1 1 42.666667 0V1002.666667a21.333333 21.333333 0 0 1-21.333333 21.333333zM395.856213 1024a21.333333 21.333333 0 0 1-21.333333-21.333333V473.408a21.333333 21.333333 0 0 1 42.666667 0V1002.666667a21.333333 21.333333 0 0 1-21.333334 21.333333zM649.445547 1024a21.333333 21.333333 0 0 1-21.333334-21.333333V583.658667a21.333333 21.333333 0 1 1 42.666667 0V1002.666667a21.333333 21.333333 0 0 1-21.333333 21.333333zM903.056213 1024a21.333333 21.333333 0 0 1-21.333333-21.333333V363.136a21.333333 21.333333 0 1 1 42.666667 0V1002.666667a21.333333 21.333333 0 0 1-21.333334 21.333333z" p-id="5851"></path><path d="M31.99488 549.866667a21.333333 21.333333 0 0 1-13.205333-38.101334l336.298666-264.64a21.333333 21.333333 0 0 1 23.296-2.026666l271.936 146.432L965.328213 42.666667h-67.776a21.333333 21.333333 0 1 1 0-42.666667H1013.328213a21.333333 21.333333 0 0 1 15.829334 35.626667L670.800213 432.576a21.290667 21.290667 0 0 1-25.962666 4.48l-274.346667-147.733333-325.312 256a21.333333 21.333333 0 0 1-13.184 4.544z" p-id="5852"></path></svg>
