<svg t="1647583527615" class="icon" viewBox="0 0 1024 1024" version="1.1" xmlns="http://www.w3.org/2000/svg" p-id="2153" width="200" height="200"><path d="M877.824 730.064c0 7.584-3.136 14.608-8.128 19.6a27.824 27.824 0 0 1-19.6 8.128h-147.888c-15.248 0-27.728-12.48-27.728-27.728v-147.888c0-15.248 12.48-27.728 27.728-27.728 7.584 0 14.608 3.136 19.6 8.128 4.992 4.992 8.128 12.016 8.128 19.6v120.16h120.16c15.248 0 27.728 12.48 27.728 27.728z" fill="#939393" p-id="2154"></path><path d="M468.544 992H109.44C57.92 992 16 948.944 16 896V96c0-52.944 41.92-96 93.44-96h645.12C806.08 0 848 43.056 848 96v308h-64V96c0-17.648-13.2-32-29.44-32H109.44C93.2 64 80 78.352 80 96v800c0 17.648 13.2 32 29.44 32h359.104v64z" fill="#333333" p-id="2155"></path><path d="M656 240H208c-17.6 0-32 14.4-32 32s14.4 32 32 32h448c17.6 0 32-14.4 32-32s-14.4-32-32-32zM400 432H208c-17.6 0-32 14.4-32 32s14.4 32 32 32h192c17.6 0 32-14.4 32-32s-14.4-32-32-32z" fill="#333333" p-id="2156"></path><path d="M712 488c132.336 0 240 107.664 240 240s-107.664 240-240 240-240-107.664-240-240 107.664-240 240-240m0-48c-159.056 0-288 128.944-288 288s128.944 288 288 288 288-128.944 288-288-128.944-288-288-288z" fill="#939393" p-id="2157"></path></svg>
