<svg t="1647581422819" class="icon" viewBox="0 0 1024 1024" version="1.1" xmlns="http://www.w3.org/2000/svg" p-id="1976" width="200" height="200"><path d="M707.047619 487.619048c134.656 0 243.809524 109.153524 243.809524 243.809523s-109.153524 243.809524-243.809524 243.809524-243.809524-109.153524-243.809524-243.809524 109.153524-243.809524 243.809524-243.809523z m121.904762-414.476191a48.761905 48.761905 0 0 1 48.761905 48.761905v371.882667A291.254857 291.254857 0 0 0 707.047619 438.857143c-161.572571 0-292.571429 130.998857-292.571429 292.571428 0 87.381333 38.302476 165.839238 99.05981 219.428572H146.285714a48.761905 48.761905 0 0 1-48.761904-48.761905V121.904762a48.761905 48.761905 0 0 1 48.761904-48.761905h682.666667z m-58.514286 512L560.761905 794.819048V853.333333h58.514285l209.676191-209.67619-58.514286-58.514286z m82.895238 219.428572h-121.904762l-48.761904 48.761904h170.666666v-48.761904zM341.333333 170.666667a146.285714 146.285714 0 1 0 0 292.571428 146.285714 146.285714 0 0 0 0-292.571428z m0 231.619047a24.380952 24.380952 0 1 1 0 48.761905 24.380952 24.380952 0 0 1 0-48.761905z m0-158.47619a73.142857 73.142857 0 1 1 0 146.285714 73.142857 73.142857 0 0 1 0-146.285714z m-97.523809 0a24.380952 24.380952 0 1 1 0 48.761905 24.380952 24.380952 0 0 1 0-48.761905z m195.047619 0a24.380952 24.380952 0 1 1 0 48.761905 24.380952 24.380952 0 0 1 0-48.761905z" p-id="1977"></path></svg>
