<svg t="1647583832784" class="icon" viewBox="0 0 1024 1024" version="1.1" xmlns="http://www.w3.org/2000/svg" p-id="8505" width="200" height="200"><path d="M600.035708 94.45035c178.324988 0 323.404419 145.079431 323.404419 323.42592 0 178.324988-145.079431 323.404419-323.404419 323.404419s-323.404419-145.079431-323.404419-323.404419c0-178.346489 145.079431-323.42592 323.404419-323.42592z m0 602.589278c153.936039 0 279.163358-125.227319 279.163358-279.163358S753.971747 138.691411 600.035708 138.691411c-153.914538 0-279.163358 125.24882-279.163358 279.184859s125.24882 279.163358 279.163358 279.163358z" fill="#333" p-id="8506"></path><path d="M600.035708 298.731854c65.682244 0 119.122914 53.440671 119.122914 119.143392 0 65.682244-53.440671 119.122914-119.122914 119.122914s-119.122914-53.440671-119.122914-119.122914c0-65.702721 53.440671-119.143392 119.122914-119.143392z m0 195.262099c41.975203 0 76.118707-34.143504 76.118707-76.118707s-34.143504-76.139184-76.118707-76.139184-76.118707 34.163982-76.118707 76.139184 34.143504 76.118707 76.118707 76.118707z" fill="#333" p-id="8507"></path><path d="M469.054154 694.705169l-16.725167-5.740925C308.345113 682.572128 193.148799 563.426688 193.148799 417.875246c0-136.956949 101.992289-250.550882 233.992609-268.815973l22.542883-5.463452 10.143632-1.891116 140.206761-5.174716V94.449326l-140.206761 9.038859v0.237542c-171.169053 2.539236-309.683331 142.367159-309.683331 314.147471 0 172.550274 139.77161 312.970003 312.024957 314.246789v0.540611l140.206761 9.041931V699.623914l-133.322156-4.918745z" fill="#333" p-id="8508"></path><path d="M310.26797 929.550674l-209.171581-74.283904 4.416018-19.974979c1.268594-5.707137 33.269106-140.232358 240.424656-149.201593 3.555954 0.136177 56.477515-0.39522 276.066105 10.067864l-2.009887 25.276657 2.009887 19.084199c-75.891404 12.094133-294.659862 73.211896-307.61406 161.128833l-4.121138 27.902923zM158.37151 826.413682l117.788792 41.807285c26.474603-61.012303 121.752252-106.986801 198.889724-133.257651-90.839106-4.937175-128.795559-2.446062-130.200329-2.582239-124.288416 5.526933-170.534244 63.187035-186.478187 94.032605z" fill="#333" p-id="8509"></path></svg>
