<svg t="1656895628308" class="icon" viewBox="0 0 1024 1024" version="1.1" xmlns="http://www.w3.org/2000/svg" p-id="2003" width="200" height="200"><path d="M329.1 406.6h43.6c5.8 13.7 13.4 26.3 22.2 38l-6.6 11.4H434l9.5-16.5c-20.7-18.9-35.7-44-41.9-72.5h-52.7c-10.9 0-19.8-8.9-19.8-19.8v-19.8c0-10.9 8.9-19.8 19.8-19.8h52.7c6.2-28.4 21.2-53.5 41.9-72.5l-26.4-45.7c-5.5-9.5-2.2-21.6 7.2-27l17.1-9.9c9.5-5.5 21.6-2.2 27 7.2l26.4 45.7c13.2-4.2 27.3-6.6 41.9-6.6 14.6 0 28.6 2.4 41.9 6.6l26.4-45.7c5.5-9.5 17.6-12.7 27-7.2l17.1 9.9c9.5 5.5 12.7 17.6 7.2 27l-26.4 45.7c20.7 18.9 35.7 44 41.9 72.5h52.7c10.9 0 19.8 8.9 19.8 19.8v19.8c0 10.9-8.9 19.8-19.8 19.8h-52.7c-6.2 28.4-21.2 53.5-41.9 72.5l26.4 45.7c5.5 9.5 2.2 21.6-7.2 27l-17.1 9.9c-0.6 0.3-1.2 0.5-1.8 0.8 3.4 10 5.4 20.8 5.4 32 0 3.8-0.3 7.5-0.7 11.2l51.1-29.5c18.9-10.9 25.4-35.1 14.5-54l-21.9-38c8.8-11.7 16.4-24.3 22.2-38h43.6c21.8 0 39.6-17.7 39.6-39.5v-59.3c0-21.8-17.7-39.5-39.6-39.5h-43.6c-5.8-13.7-13.4-26.3-22.2-38l21.9-38c10.9-18.9 4.4-43.1-14.5-54l-51.4-29.7c-18.9-10.9-43.1-4.4-54 14.5L558.7 161c-7.2-0.9-14.5-1.5-22-1.5s-14.8 0.6-22 1.5l-21.9-38c-10.9-18.9-35.1-25.4-54-14.5l-51.4 29.7c-18.9 10.9-25.4 35.1-14.5 54l21.9 38c-8.8 11.7-16.4 24.3-22.2 38H329c-21.8 0-39.5 17.7-39.5 39.5V367c0 21.9 17.7 39.6 39.6 39.6z m207.6-148.3c-43.7 0-79.1 35.4-79.1 79.1 0 43.7 35.4 79.1 79.1 79.1s79.1-35.4 79.1-79.1c0-43.7-35.4-79.1-79.1-79.1z m0 118.7c-21.8 0-39.6-17.7-39.6-39.5s17.7-39.5 39.6-39.5 39.6 17.7 39.6 39.5-17.7 39.5-39.6 39.5z m296.6 148.3C793.9 559.7 685 663.7 685 663.7l-197.8-9.9-59.2-39.5h98.9c29.5 0 69.2-20.5 69.2-69.2s-40.3-69.2-69.2-69.2H258c-43.5 0-56.3 17.8-87.1 39.5-46.8 33-98.9 69.2-98.9 69.2l19.8 29.7 148.3-98.9h286.7c16.2 0 29.7 16.3 29.7 29.7 0 13.4-6.7 29.7-29.7 29.7H398.3c-21.5 0-35.7 33.8-19.8 49.4 15.9 15.7 84.5 69.2 98.9 69.2 14.4 0 192.8 9.9 207.6 9.9S836.2 569.4 853.1 555c22.7-19.4 59.3 0 59.3 0L694.9 772.5H279.6C257 772.5 72 881.2 72 881.2l19.8 39.5L289.5 812H685c30 0 49.4-29.7 49.4-29.7S951.1 576.8 952 545.1c0.9-31.8-83.3-50.6-118.7-19.8z" p-id="2004"></path></svg>
